<svg xmlns="http://www.w3.org/2000/svg" xml:space="preserve" viewBox="0 0 100 21" width="100" height="21"><path fill="#f0f0f0" d="M0 4.7C0 2.1 2.1.1 4.6.1h90.6c2.6 0 4.6 2.1 4.6 4.6v11.6c0 2.6-2.1 4.6-4.6 4.6H4.6C2 20.9 0 18.8 0 16.3V4.7z"></path><path d="M9.5 14.5H8l-3-9h1.4l2.3 7.6L11 5.5h1.4l-2.9 9zm5.7.2c-1.8 0-3-1.3-3-3.2 0-1.8 1.2-3.2 3-3.2 1.5 0 2.7 1.1 2.7 3.1v.5h-4.4c.1 1.1.6 1.8 1.7 1.8.8 0 1.3-.5 1.4-.9h1.3c-.3 1.1-1.3 1.9-2.7 1.9zm-1.7-3.6h3.1c0-1-.6-1.6-1.5-1.6-1-.1-1.5.6-1.6 1.6zm7 3.4h-1.2v-6h1.2v1.6c.4-1.2 1.2-1.6 2.4-1.6v1.2c-1.4 0-2.4.4-2.4 1.9v2.9zm4-7.2c-.5 0-.9-.3-.9-.9s.3-.8.9-.8c.5 0 .9.3.9.8s-.4.9-.9.9zm.6 7.2h-1.3v-6h1.3v6zm3.7 0h-1.3V9.6h-1.3V8.5h1.3v-.6c0-1.7.8-2.5 2.3-2.4h.4v1.1H30c-.9 0-1.2.3-1.2 1.2v.8h1.5v1.1h-1.5v4.8zm3.3-7.2c-.5 0-.9-.3-.9-.9s.3-.8.9-.8c.5 0 .9.3.9.8s-.4.9-.9.9zm.6 7.2h-1.3v-6h1.3v6zm4.4.2c-1.8 0-3-1.3-3-3.2 0-1.8 1.2-3.2 3-3.2 1.5 0 2.7 1.1 2.7 3.1v.5h-4.4c.1 1.1.6 1.8 1.7 1.8.8 0 1.3-.5 1.4-.9h1.3c-.2 1.1-1.2 1.9-2.7 1.9zm-1.6-3.6h3.1c0-1-.6-1.6-1.5-1.6-1-.1-1.5.6-1.6 1.6zm8.2 3.6c-1.6 0-2.7-1.3-2.7-3.2 0-1.9 1.1-3.2 2.7-3.2.8 0 1.7.4 2.1 1.1v-4h1.3v9.1h-1.3v-1c-.4.8-1.3 1.2-2.1 1.2zm.3-1.1c1.1 0 1.8-.8 1.8-2.1s-.7-2.1-1.8-2.1c-1 0-1.7.8-1.7 2.1s.7 2.1 1.7 2.1zm11 1.1c-.8 0-1.7-.4-2.1-1.1v1h-1.3V5.4h1.3v4.1c.4-.7 1.3-1.1 2.1-1.1 1.6 0 2.7 1.2 2.7 3.2-.1 1.9-1.1 3.1-2.7 3.1zm-.3-1.1c1 0 1.7-.8 1.7-2.1s-.7-2.1-1.7-2.1c-1.1 0-1.8.8-1.8 2.1-.1 1.3.7 2.1 1.8 2.1zm4 3.3v-1.1c.9 0 1.2-.1 1.6-1.1l-2.2-6.2h1.4l1.5 4.6 1.5-4.6h1.3l-2.3 6.4c-.6 1.6-1.3 2-2.8 2zM70.4 10.5c-1.1-.2-1.6-.3-1.6-.8 0-.4.3-.6 1-.6.6 0 1 .3 1.4.8 0 0 .1.1.1 0l1.3-.6s.1-.1 0-.1c-.5-.9-1.5-1.4-2.8-1.4-1.7 0-2.7.8-2.7 2.2 0 1.4 1.3 1.8 2.4 2 1.1.2 1.6.3 1.6.8 0 .4-.4.6-1.1.6-.7 0-1.2-.3-1.5-.9 0 0-.1-.1-.1 0l-1.3.5s-.1.1 0 .1c.5 1 1.5 1.6 2.9 1.6 1.8 0 2.8-.8 2.8-2.2 0-1.4-1.3-1.8-2.4-2zM77.2 7.7c-.7 0-1.4.3-1.8.7h-.1V5.5c0-.1 0-.1-.1-.1h-1.6c-.1 0-.1 0-.1.1v9c0 .1 0 .1.1.1h1.6c.1 0 .1 0 .1-.1v-4c0-.8.6-1.4 1.4-1.4.8 0 1.4.6 1.4 1.4v4c0 .1 0 .1.1.1h1.6c.1 0 .1 0 .1-.1v-4c0-1.6-1.1-2.8-2.7-2.8zM83.1 7.5c-.9 0-1.7.3-2.3.6 0 0-.1.1 0 .1l.7 1.2s.1.1.1 0c.4-.3.9-.4 1.5-.4 1.4 0 2.4 1 2.4 2.3 0 1.1-.8 1.9-1.9 1.9-.8 0-1.4-.5-1.4-1.2 0-.4.2-.7.6-1 0 0 .1-.1 0-.1l-.7-1.1s-.1-.1-.1 0c-.9.3-1.5 1.1-1.5 2.2 0 1.6 1.3 2.8 3.1 2.8 2.1 0 3.6-1.4 3.6-3.5 0-2.2-1.7-3.8-4.1-3.8zM91.9 7.7c-.8 0-1.5.3-2.1.8h-.1v-.6c0-.1 0-.1-.1-.1H88c-.1 0-.1 0-.1.1v9c0 .1 0 .1.1.1h1.6c.1 0 .1 0 .1-.1v-3s0-.1.1 0c.5.5 1.2.8 2 .8 1.9 0 3.3-1.5 3.3-3.5s-1.3-3.5-3.2-3.5zm-.3 5.4c-1.1 0-1.9-.8-1.9-2s.8-2 1.9-2c1.1 0 1.9.8 1.9 2s-.8 2-1.9 2z"></path></svg>